<?xml version="1.0" standalone="no"?>
<!DOCTYPE svg PUBLIC "-//W3C//DTD SVG 20010904//EN"
 "http://www.w3.org/TR/2001/REC-SVG-20010904/DTD/svg10.dtd">
<svg version="1.0" xmlns="http://www.w3.org/2000/svg"
 width="802.000000pt" height="255.000000pt" viewBox="0 0 802.000000 255.000000"
 preserveAspectRatio="xMidYMid meet">

<g transform="translate(0.000000,255.000000) scale(0.100000,-0.100000)"
fill="#6E4D8B" stroke="none">
<path d="M420 2235 l0 -135 130 0 130 0 0 -835 0 -835 -130 0 -131 0 3 -142 3
-143 553 -3 552 -2 0 145 0 145 -150 0 -150 0 0 360 0 360 188 2 187 3 0 140
0 140 -187 3 -188 2 0 330 0 330 225 0 225 0 0 -190 0 -190 235 0 235 0 0 325
0 325 -865 0 -865 0 0 -135z"/>
<path d="M2760 1421 l-85 -37 -3 -47 -3 -47 -45 0 -44 0 0 -60 0 -60 45 0 45
0 0 -200 0 -199 30 -34 c16 -18 47 -39 68 -45 43 -13 135 -15 195 -6 l37 7 0
53 0 53 -54 -6 c-46 -5 -57 -2 -75 16 -20 20 -21 31 -21 191 l0 170 60 0 60 0
0 60 0 60 -61 0 -60 0 2 80 c1 44 0 82 -2 84 -2 2 -42 -13 -89 -33z"/>
<path d="M2071 1281 c-67 -24 -99 -47 -123 -91 l-18 -35 47 -11 c103 -23 124
-24 130 -6 13 38 36 52 82 52 66 0 73 -8 79 -88 l4 -70 -53 15 c-61 16 -167
10 -209 -12 -29 -15 -73 -60 -89 -92 -16 -31 -14 -119 3 -152 21 -39 77 -87
122 -101 51 -17 145 -7 189 20 l35 22 0 -21 c0 -20 5 -21 136 -21 l135 0 -3
53 -3 52 -37 3 -37 3 -3 189 c-4 220 -6 226 -102 274 -78 39 -202 47 -285 17z
m197 -401 c4 -77 -8 -90 -78 -90 -33 0 -52 6 -63 18 -26 29 -31 75 -12 111 16
32 17 32 83 29 l67 -3 3 -65z"/>
<path d="M3258 1286 c-118 -43 -168 -131 -169 -297 -2 -199 76 -301 242 -315
79 -7 143 11 204 58 43 32 93 104 81 115 -3 4 -6 4 -6 1 0 -6 -95 13 -142 28
-13 4 -18 0 -18 -14 0 -11 -9 -31 -21 -46 -16 -20 -29 -26 -58 -26 -20 0 -45
6 -55 13 -18 13 -35 72 -36 122 l0 30 170 -3 170 -3 0 73 c0 131 -32 195 -120
242 -65 35 -180 46 -242 22z m156 -118 c9 -13 16 -43 16 -70 l0 -48 -75 0 -75
0 0 28 c0 38 17 94 32 104 7 4 30 8 50 8 27 0 41 -6 52 -22z"/>
<path d="M4554 1282 c-28 -10 -63 -28 -79 -41 -28 -21 -65 -69 -65 -82 0 -4
30 -12 68 -18 37 -7 75 -14 84 -17 13 -4 21 2 28 20 12 31 39 46 85 46 65 0
75 -12 75 -91 0 -54 -3 -68 -12 -62 -7 4 -20 9 -28 11 -21 6 -161 4 -185 -2
-11 -2 -23 -5 -27 -5 -15 -2 -80 -65 -94 -93 -10 -19 -14 -50 -12 -90 2 -51 8
-66 35 -98 18 -20 29 -41 25 -45 -4 -5 -2 -5 5 -1 7 4 24 -1 38 -10 15 -10 54
-19 93 -21 57 -4 74 -1 115 20 44 23 47 23 47 6 0 -18 10 -19 136 -19 l135 0
-3 53 -3 52 -37 3 -38 3 0 186 c0 220 -5 234 -97 280 -75 36 -210 43 -289 15z
m194 -402 c4 -76 -8 -90 -75 -90 -63 0 -97 35 -89 91 3 22 8 45 12 50 11 18
43 25 97 19 l52 -5 3 -65z"/>
<path d="M5791 1284 c-66 -23 -99 -52 -129 -113 -22 -47 -27 -72 -30 -157 -5
-118 11 -188 57 -251 79 -108 277 -123 388 -28 128 110 118 430 -17 519 -72
47 -183 60 -269 30z m148 -113 c26 -26 34 -87 29 -223 -4 -135 -15 -158 -70
-158 -62 0 -73 27 -73 189 0 142 11 196 43 204 35 9 53 6 71 -12z"/>
<path d="M7183 1286 c-83 -27 -170 -103 -146 -127 5 -5 43 -16 84 -24 67 -13
75 -13 84 2 25 41 46 53 89 53 63 0 76 -17 76 -96 0 -64 0 -65 -22 -52 -35 19
-196 15 -233 -5 -93 -51 -128 -145 -92 -244 15 -40 77 -90 131 -104 54 -15
139 -5 182 20 34 20 34 20 34 1 0 -19 7 -20 130 -20 l130 0 0 55 0 55 -35 0
-35 0 0 181 c0 223 -7 241 -104 285 -73 33 -204 43 -273 20z m185 -406 c4 -76
-8 -90 -73 -90 -64 0 -85 21 -85 85 0 70 16 82 96 75 l59 -5 3 -65z"/>
<path d="M3865 1271 c-81 -37 -115 -107 -123 -251 -5 -114 15 -207 56 -260
106 -133 399 -110 464 37 29 66 24 74 -67 100 -44 12 -81 23 -82 23 -2 0 -3
-13 -3 -30 0 -31 -18 -81 -35 -92 -5 -4 -28 -8 -51 -8 -70 0 -78 18 -82 184
-2 83 1 152 7 169 14 36 52 50 101 37 42 -11 50 -24 50 -81 l0 -39 90 0 90 0
0 115 0 116 -87 -3 c-77 -3 -88 -5 -87 -20 2 -22 6 -22 -41 2 -51 26 -145 27
-200 1z"/>
<path d="M5080 1229 l0 -61 40 4 40 4 0 -188 0 -188 -40 0 -40 0 0 -55 0 -55
185 0 185 0 0 55 0 55 -50 0 -50 0 0 133 c0 124 2 135 25 169 28 41 57 53 135
57 30 2 58 5 62 7 5 3 8 32 8 65 l0 59 -47 0 c-60 0 -121 -28 -156 -69 l-27
-33 0 51 0 51 -135 0 -135 0 0 -61z"/>
<path d="M6260 1230 l0 -60 35 0 34 0 3 -185 3 -185 -37 0 -38 0 0 -55 0 -55
171 0 170 0 -3 53 -3 52 -37 3 -38 3 0 173 c0 192 0 192 66 203 62 10 64 2 64
-259 l0 -228 130 0 130 0 0 55 0 55 -40 0 -40 0 0 198 c0 175 -2 200 -19 228
-40 66 -167 86 -248 39 l-43 -24 0 25 0 24 -130 0 -130 0 0 -60z"/>
</g>
</svg>
